<svg width="92" height="92" viewBox="0 0 92 92" fill="none" xmlns="http://www.w3.org/2000/svg">
<path fill-rule="evenodd" clip-rule="evenodd" d="M40.6915 52.0251C42.5766 54.3985 43.4961 57.3197 43.4961 60.6974C43.4961 64.5771 42.2547 67.6809 39.68 69.9631C37.1053 72.2453 33.8409 73.3864 29.9328 73.3864C20.9672 73.3864 14.6224 66.2203 13.289 55.3571C11.1741 38.1493 23.542 24.5475 36.0938 18.6138L42.4846 27.5143C34.1627 31.6223 27.7259 41.2075 29.0592 48.7387C32.2777 48.0084 37.8409 48.4648 40.6915 52.0251ZM77.7032 52.0251C79.5883 54.3985 80.5078 57.3197 80.5078 60.6974C80.5078 64.5771 79.2664 67.6809 76.6917 69.9631C74.117 72.2453 70.8526 73.3864 66.9445 73.3864C57.979 73.3864 51.6801 66.2203 50.3467 55.3571C48.2318 38.1493 60.5537 24.5475 73.1055 18.6138L79.4963 27.5143C71.1744 31.6223 64.7376 41.2075 66.071 48.7387C69.2894 48.0084 74.8066 48.4648 77.7032 52.0251Z" fill="white"/>
</svg>
