<svg width="92" height="92" viewBox="0 0 92 92" fill="none" xmlns="http://www.w3.org/2000/svg">
<path fill-rule="evenodd" clip-rule="evenodd" d="M51.3085 39.9749C49.4234 37.6015 48.5039 34.6803 48.5039 31.3026C48.5039 27.4229 49.7453 24.3191 52.32 22.0369C54.8947 19.7547 58.1591 18.6136 62.0672 18.6136C71.0328 18.6136 77.3776 25.7797 78.711 36.6429C80.8259 53.8507 68.458 67.4525 55.9062 73.3862L49.5154 64.4857C57.8373 60.3777 64.2741 50.7925 62.9408 43.2613C59.7223 43.9916 54.1591 43.5352 51.3085 39.9749ZM14.2968 39.9749C12.4117 37.6015 11.4922 34.6803 11.4922 31.3026C11.4922 27.4229 12.7336 24.3191 15.3083 22.0369C17.883 19.7547 21.1474 18.6136 25.0555 18.6136C34.021 18.6136 40.3199 25.7797 41.6533 36.6429C43.7682 53.8507 31.4463 67.4525 18.8945 73.3862L12.5037 64.4857C20.8256 60.3777 27.2624 50.7925 25.929 43.2613C22.7106 43.9916 17.1934 43.5352 14.2968 39.9749Z" fill="white"/>
</svg>
