<svg width="22" height="24" viewBox="0 0 22 24" fill="none" xmlns="http://www.w3.org/2000/svg">
<path fill-rule="evenodd" clip-rule="evenodd" d="M20.9813 7.66396C20.9017 5.98115 20.5173 4.49053 19.2845 3.2624C18.0563 2.03428 16.5657 1.6499 14.8829 1.56553C13.1485 1.46709 7.9501 1.46709 6.21572 1.56553C4.5376 1.64521 3.04697 2.02959 1.81416 3.25771C0.581348 4.48584 0.20166 5.97647 0.117285 7.65928C0.0188477 9.39365 0.0188477 14.5921 0.117285 16.3265C0.196973 18.0093 0.581348 19.4999 1.81416 20.728C3.04697 21.9562 4.53291 22.3405 6.21572 22.4249C7.9501 22.5233 13.1485 22.5233 14.8829 22.4249C16.5657 22.3452 18.0563 21.9608 19.2845 20.728C20.5126 19.4999 20.897 18.0093 20.9813 16.3265C21.0798 14.5921 21.0798 9.39834 20.9813 7.66396ZM16.1579 7.64522C16.8517 7.64522 17.4142 7.0874 17.4142 6.38896C17.4142 5.69521 16.8517 5.13271 16.1579 5.13271C15.4642 5.13271 14.9017 5.69521 14.9017 6.38896C14.9017 7.08272 15.4595 7.64522 16.1579 7.64522ZM10.5517 6.60928C7.57041 6.60928 5.16572 9.01396 5.16572 11.9952C5.16572 14.9765 7.57041 17.3812 10.5517 17.3812C13.5329 17.3812 15.9376 14.9765 15.9376 11.9952C15.9376 9.01396 13.5329 6.60928 10.5517 6.60928ZM10.5517 15.4968C8.6251 15.4968 7.0501 13.9265 7.0501 11.9952C7.0501 10.064 8.62041 8.49365 10.5517 8.49365C12.4829 8.49365 14.0532 10.064 14.0532 11.9952C14.0532 13.9265 12.4782 15.4968 10.5517 15.4968ZM16.7438 20.1843C17.6673 19.814 18.3751 19.1062 18.7407 18.1874C19.2111 17.0054 19.1849 14.4197 19.168 12.7437C19.1652 12.4656 19.1626 12.2126 19.1626 11.9952C19.1626 11.7778 19.1652 11.5248 19.168 11.2469C19.1849 9.57166 19.2111 6.98906 18.7407 5.80303C18.3704 4.87959 17.6626 4.17178 16.7438 3.80615C15.5581 3.3383 12.9599 3.36322 11.2843 3.3793C11.0125 3.3819 10.765 3.38428 10.5517 3.38428C10.3342 3.38428 10.0812 3.38171 9.80331 3.3789C8.12811 3.36193 5.54551 3.33576 4.35947 3.80615C3.43604 4.17646 2.72822 4.88428 2.3626 5.80303C1.89475 6.98879 1.91967 9.58694 1.93574 11.2625C1.93835 11.5344 1.94072 11.7819 1.94072 11.9952C1.94072 12.2127 1.93816 12.4656 1.93534 12.7436C1.91837 14.4188 1.8922 17.0014 2.3626 18.1874C2.73291 19.1108 3.44072 19.8187 4.35947 20.1843C5.54524 20.6521 8.14339 20.6272 9.81899 20.6111C10.0908 20.6085 10.3384 20.6062 10.5517 20.6062C10.7691 20.6062 11.0221 20.6087 11.3 20.6115C12.9752 20.6285 15.5578 20.6547 16.7438 20.1843Z" fill="white"/>
</svg>
