<svg width="27" height="24" viewBox="0 0 27 24" fill="none" xmlns="http://www.w3.org/2000/svg">
<path fill-rule="evenodd" clip-rule="evenodd" d="M23.5017 3.53841C24.6032 3.8347 25.4706 4.7078 25.765 5.81639C26.3 7.82578 26.3 12.0182 26.3 12.0182C26.3 12.0182 26.3 16.2106 25.765 18.22C25.4706 19.3286 24.6032 20.1653 23.5017 20.4616C21.5053 21 13.5 21 13.5 21C13.5 21 5.49465 21 3.4982 20.4616C2.39678 20.1653 1.52931 19.3286 1.23489 18.22C0.699951 16.2106 0.699951 12.0182 0.699951 12.0182C0.699951 12.0182 0.699951 7.82578 1.23489 5.81639C1.52931 4.7078 2.39678 3.83475 3.4982 3.53841C5.49465 3 13.5 3 13.5 3C13.5 3 21.5053 3 23.5017 3.53841ZM10.8818 8.2118V15.8246L17.5727 12.0183L10.8818 8.2118Z" fill="white"/>
</svg>
