<svg width="21" height="24" viewBox="0 0 21 24" fill="none" xmlns="http://www.w3.org/2000/svg">
<path fill-rule="evenodd" clip-rule="evenodd" d="M1.49531 1.5H19.5C20.325 1.5 21 2.17969 21 3.01406V20.9859C21 21.8203 20.325 22.5 19.5 22.5H1.49531C0.670312 22.5 0 21.8203 0 20.9859V3.01406C0 2.17969 0.670312 1.5 1.49531 1.5ZM6.34688 19.5H6.35156V9.47813H3.23438V19.5H6.34688ZM4.79063 8.10938C3.79219 8.10938 2.98594 7.29844 2.98594 6.30469C2.98594 5.31094 3.79219 4.5 4.79063 4.5C5.78438 4.5 6.59531 5.31094 6.59531 6.30469C6.59531 7.30312 5.78906 8.10938 4.79063 8.10938ZM14.9016 19.5H18.0141V14.0063C18.0141 11.3063 17.4281 9.22969 14.2781 9.22969C12.7641 9.22969 11.7469 10.0594 11.3297 10.8469H11.2875V9.47813H8.30156V19.5H11.4141V14.5406C11.4141 13.2328 11.6625 11.9672 13.2844 11.9672C14.8781 11.9672 14.9016 13.4625 14.9016 14.625V19.5Z" fill="white"/>
</svg>
