<svg width="281" height="40" viewBox="0 0 281 40" fill="none" xmlns="http://www.w3.org/2000/svg">
<g opacity="0.8">
<path fill-rule="evenodd" clip-rule="evenodd" d="M4.10961 35.6472V37.4838H1.45572V35.6472H0.801514V39.9242H1.45572V38.056H4.10961V39.9242H4.7643V35.6472H4.10961Z" fill="#1D1D1B"/>
<path fill-rule="evenodd" clip-rule="evenodd" d="M13.4981 35.6472L11.7247 39.9242H12.3911L12.7809 38.9808H14.9138L15.2909 39.9242H15.9578L14.2596 35.6472H13.4981ZM13.8756 36.3013L14.7435 38.4838H12.9575L13.8756 36.3013Z" fill="#1D1D1B"/>
<path fill-rule="evenodd" clip-rule="evenodd" d="M26.2524 35.6472V38.893L23.5346 35.6472H22.9565V39.9242H23.6103V36.6916L26.3339 39.9242H26.9066V35.6472H26.2524Z" fill="#1D1D1B"/>
<path fill-rule="evenodd" clip-rule="evenodd" d="M35.0493 36.2193V39.352H36.1124C37.0242 39.352 37.672 38.7983 37.672 37.792C37.672 36.773 37.0242 36.2261 36.1124 36.2193H35.0493ZM34.3951 35.6471H36.1372C37.4017 35.6535 38.3452 36.4018 38.3452 37.792C38.3452 39.1696 37.4017 39.9242 36.1372 39.9242H34.3951V35.6471Z" fill="#1D1D1B"/>
<path fill-rule="evenodd" clip-rule="evenodd" d="M49.5832 36.6847L47.9665 38.6345H47.8406L46.2244 36.6847V39.9242H45.5702V35.6472H46.1678L47.9036 37.7418L49.6462 35.6472H50.2374V39.9242H49.5832V36.6847Z" fill="#1D1D1B"/>
<path fill-rule="evenodd" clip-rule="evenodd" d="M58.4369 38.4835H60.2234L59.355 36.3011L58.4369 38.4835ZM58.9774 35.6474H59.739L61.4372 39.924H60.7703L60.3932 38.9811H58.2608L57.8705 39.924H57.2041L58.9774 35.6474Z" fill="#1D1D1B"/>
<path fill-rule="evenodd" clip-rule="evenodd" d="M69.0897 36.2193V39.352H70.1528C71.0646 39.352 71.7124 38.7983 71.7124 37.792C71.7124 36.773 71.0646 36.2261 70.1528 36.2193H69.0897ZM68.4355 35.6471H70.1776C71.4421 35.6535 72.3856 36.4018 72.3856 37.792C72.3856 39.1696 71.4421 39.9242 70.1776 39.9242H68.4355V35.6471Z" fill="#1D1D1B"/>
<path fill-rule="evenodd" clip-rule="evenodd" d="M79.6104 39.9241V35.647H82.9316V36.226H80.2392V37.427H82.4721V38.0056H80.2392V39.3451H82.9316V39.9241H79.6104Z" fill="#1D1D1B"/>
<mask id="mask0" mask-type="alpha" maskUnits="userSpaceOnUse" x="97" y="35" width="5" height="5">
<path fill-rule="evenodd" clip-rule="evenodd" d="M97.6521 35.5842H101.823V39.9869H97.6521V35.5842Z" fill="white"/>
</mask>
<g mask="url(#mask0)">
<path fill-rule="evenodd" clip-rule="evenodd" d="M99.2249 37.4398L99.5454 37.3266C99.923 37.1881 100.105 37.0242 100.105 36.7101C100.105 36.3954 99.8225 36.1501 99.4074 36.1501C98.9415 36.1501 98.7215 36.3896 98.7215 36.6915C98.7215 36.9808 98.9922 37.2261 99.2249 37.4398ZM100.118 39.1188L99.0234 38.0686C98.64 38.2135 98.3063 38.3891 98.3063 38.7418C98.3063 39.1505 98.6527 39.4213 99.1869 39.4213C99.5206 39.4213 99.8347 39.314 100.118 39.1188ZM101.741 37.8359C101.584 38.2701 101.351 38.7227 101.024 39.094L101.823 39.8296V39.9242H100.961L100.546 39.5276C100.162 39.8105 99.684 39.9871 99.1239 39.9871C98.2121 39.9871 97.6521 39.534 97.6521 38.7793C97.6521 38.1881 98.0673 37.874 98.6019 37.6535C98.3 37.3579 98.0863 37.0813 98.0863 36.6535C98.0863 36.0681 98.558 35.5842 99.4074 35.5842C100.181 35.5842 100.747 36.0305 100.747 36.6408C100.747 37.3076 100.313 37.6096 99.7908 37.792L99.6591 37.8422L100.59 38.6974C100.867 38.3769 101.087 37.9618 101.231 37.5027L101.741 37.8359Z" fill="#1D1D1B"/>
</g>
<path fill-rule="evenodd" clip-rule="evenodd" d="M117.223 36.2193V39.352H118.286C119.198 39.352 119.846 38.7983 119.846 37.792C119.846 36.773 119.198 36.2261 118.286 36.2193H117.223ZM116.569 35.6471H118.311C119.575 35.6535 120.519 36.4018 120.519 37.792C120.519 39.1696 119.575 39.9242 118.311 39.9242H116.569V35.6471Z" fill="#1D1D1B"/>
<mask id="mask1" mask-type="alpha" maskUnits="userSpaceOnUse" x="0" y="0" width="281" height="40">
<path fill-rule="evenodd" clip-rule="evenodd" d="M0 39.9869H280.814V0.4879H0V39.9869Z" fill="white"/>
</mask>
<g mask="url(#mask1)">
<path fill-rule="evenodd" clip-rule="evenodd" d="M127.744 39.9245H128.398V35.6474H127.744V39.9245Z" fill="#1D1D1B"/>
<path fill-rule="evenodd" clip-rule="evenodd" d="M139.693 39.421C139.297 39.7293 138.548 39.9869 137.893 39.9869C136.629 39.9869 135.617 39.1693 135.617 37.7918C135.617 36.402 136.629 35.5844 137.893 35.5844C138.586 35.5844 139.101 35.8166 139.529 36.1757L139.215 36.6786C138.862 36.3703 138.454 36.1947 137.906 36.1947C137.001 36.1947 136.29 36.7791 136.29 37.7918C136.29 38.7918 137.001 39.3766 137.932 39.3766C138.353 39.3766 138.762 39.2508 139.038 39.0752V38.1001H137.711V37.5279H139.693V39.421Z" fill="#1D1D1B"/>
<path fill-rule="evenodd" clip-rule="evenodd" d="M146.968 39.9245H147.622V35.6474H146.968V39.9245Z" fill="#1D1D1B"/>
<path fill-rule="evenodd" clip-rule="evenodd" d="M156.816 36.226V39.924H156.162V36.226H154.627V35.647H158.275V36.226H156.816Z" fill="#1D1D1B"/>
<path fill-rule="evenodd" clip-rule="evenodd" d="M165.645 38.4835H167.432L166.564 36.3011L165.645 38.4835ZM166.186 35.6474H166.947L168.646 39.924H167.979L167.602 38.9811H165.469L165.079 39.924H164.413L166.186 35.6474Z" fill="#1D1D1B"/>
<path fill-rule="evenodd" clip-rule="evenodd" d="M175.644 39.9241V35.647H176.298V39.3519H178.638V39.9241H175.644Z" fill="#1D1D1B"/>
<path fill-rule="evenodd" clip-rule="evenodd" d="M193.825 36.2193V39.352H194.888C195.799 39.352 196.447 38.7983 196.447 37.792C196.447 36.773 195.799 36.2261 194.888 36.2193H193.825ZM193.17 35.6471H194.913C196.177 35.6535 197.121 36.4018 197.121 37.792C197.121 39.1696 196.177 39.9242 194.913 39.9242H193.17V35.6471Z" fill="#1D1D1B"/>
<path fill-rule="evenodd" clip-rule="evenodd" d="M204.346 39.9241V35.647H207.667V36.226H204.975V37.427H207.207V38.0056H204.975V39.3451H207.667V39.9241H204.346Z" fill="#1D1D1B"/>
<path fill-rule="evenodd" clip-rule="evenodd" d="M215.533 36.6914V39.9241H214.879V35.647H215.457L218.175 38.8929V35.647H218.829V39.9241H218.257L215.533 36.6914Z" fill="#1D1D1B"/>
<path fill-rule="evenodd" clip-rule="evenodd" d="M228.023 36.226V39.924H227.369V36.226H225.834V35.647H229.482V36.226H228.023Z" fill="#1D1D1B"/>
<path fill-rule="evenodd" clip-rule="evenodd" d="M236.487 39.9245H237.141V35.6474H236.487V39.9245Z" fill="#1D1D1B"/>
<path fill-rule="evenodd" clip-rule="evenodd" d="M244.543 38.9871C244.832 39.1695 245.342 39.3832 245.901 39.3832C246.524 39.3832 246.952 39.1441 246.952 38.7227C246.952 38.4207 246.732 38.251 246.21 38.1251L245.442 37.9368C244.725 37.7666 244.373 37.3832 244.373 36.8232C244.373 36.1505 244.895 35.5905 246.027 35.5905C246.625 35.5905 247.203 35.7607 247.524 35.93L247.335 36.5344C247.034 36.3519 246.48 36.1944 246.002 36.1944C245.335 36.1944 245.052 36.4461 245.052 36.7666C245.052 37.0627 245.253 37.2071 245.643 37.3139L246.473 37.528C247.228 37.729 247.631 38.0685 247.631 38.6724C247.631 39.4646 246.901 39.9871 245.889 39.9871C245.272 39.9871 244.656 39.7729 244.385 39.6159L244.543 38.9871Z" fill="#1D1D1B"/>
<path fill-rule="evenodd" clip-rule="evenodd" d="M256.516 36.226V39.924H255.862V36.226H254.327V35.647H257.976V36.226H256.516Z" fill="#1D1D1B"/>
<path fill-rule="evenodd" clip-rule="evenodd" d="M265.635 36.2193V37.8296H266.911C267.389 37.8296 267.767 37.5403 267.767 37.031C267.767 36.4837 267.389 36.2193 266.911 36.2193H265.635ZM264.98 35.6471H266.843C267.792 35.6471 268.446 36.0681 268.446 37.0183C268.446 37.754 267.911 38.251 267.226 38.3393L268.723 39.8174V39.9242H267.969L266.415 38.3515H265.635V39.9242H264.98V35.6471Z" fill="#1D1D1B"/>
<path fill-rule="evenodd" clip-rule="evenodd" d="M276.747 38.1758L275.017 35.6973V35.647H275.747L277.074 37.5719L278.401 35.647H279.131V35.6973L277.401 38.169V39.9241H276.747V38.1758Z" fill="#1D1D1B"/>
<path fill-rule="evenodd" clip-rule="evenodd" d="M2.82991 1.56873C5.76919 -0.136632 9.33681 0.560929 12.5088 1.07459C12.0995 2.6619 11.9653 4.30825 11.4809 5.87605C11.2389 5.90532 10.7574 5.96434 10.5155 5.99361C10.4959 4.52434 10.1457 2.74386 8.63675 2.10239C7.16346 1.58873 5.24231 1.67361 4.11978 2.88434C3.00992 4.1019 3.33727 6.09508 4.43688 7.21117C6.52194 9.36825 9.73636 10.0424 11.6512 12.4121C13.6577 14.8078 13.1371 19.0365 10.2437 20.5092C7.80839 21.8024 4.83301 21.7692 2.26693 20.8858C1.26197 20.5126 0.158946 19.8087 0.00478585 18.6502C-0.0537558 17.5243 0.411163 16.457 0.751192 15.4068C1.09854 15.3902 1.44833 15.3741 1.7986 15.3609C1.93325 16.4248 1.9952 17.58 2.64014 18.4834C3.88073 20.3097 6.5878 20.6731 8.44991 19.6517C9.60903 19.0595 10.0866 17.5736 9.73002 16.3658C9.39926 14.919 8.15232 13.9634 6.98051 13.1912C5.02278 11.9043 2.71868 10.9556 1.32734 8.9819C-0.319145 6.66142 0.309202 3.00873 2.82991 1.56873Z" fill="#1D1D1B"/>
<path fill-rule="evenodd" clip-rule="evenodd" d="M19.4503 0.685076C20.3406 0.77971 21.231 0.85532 22.1276 0.845564C26.6022 0.838735 31.0767 0.842149 35.5478 0.842149C36.4055 0.848491 37.2597 0.763613 38.111 0.671906C37.8558 2.42947 37.4856 4.16752 37.2041 5.92166C36.926 5.92508 36.3694 5.93483 36.0947 5.93825C36.0093 4.76654 36.1274 3.19239 34.88 2.56703C33.535 2.01727 32.0358 2.2563 30.6215 2.2202C30.1766 2.13825 29.6658 2.43288 29.8 2.93044C29.7117 8.56947 29.9542 14.2217 29.6727 19.8548C30.6445 19.9495 31.6167 20.0378 32.589 20.1426C32.5759 20.4339 32.5627 20.7285 32.5495 21.0197C29.8395 21.0851 27.129 21.1539 24.4191 21.2226C24.422 20.987 24.4288 20.5158 24.4288 20.2836C25.3782 20.0021 26.5173 19.4621 26.507 18.3065C26.5563 12.9421 26.5105 7.57776 26.527 2.21678C25.0474 2.28215 23.5156 2.01727 22.0818 2.46898C20.6485 3.04166 20.1606 4.65191 19.5547 5.93142H18.501C18.8249 4.18361 19.0771 2.42313 19.4503 0.685076Z" fill="#1D1D1B"/>
<path fill-rule="evenodd" clip-rule="evenodd" d="M42.8881 0.855127C45.0644 0.829273 47.2446 0.871712 49.4179 0.707809C48.7437 1.87659 48.4164 3.20537 48.4198 4.55025C48.41 7.72196 48.3935 10.8932 48.4296 14.0649C48.4622 15.7502 49.0647 17.4883 50.3868 18.5912C52.9499 20.7839 57.4113 20.2507 59.2149 17.341C60.3179 15.6981 60.1413 13.6361 60.1447 11.7542C60.1052 8.90342 60.2198 6.04635 60.0886 3.19854C60.0364 2.01708 58.6651 1.91903 57.7811 1.73903V0.84537C59.8627 0.86537 61.9478 0.783419 64.0294 0.897566C63.2767 1.87952 61.9054 2.50147 61.8561 3.90244C61.7678 7.40781 61.8893 10.9161 61.8039 14.4249C61.7024 16.739 60.4847 19.0298 58.4553 20.2083C55.7126 21.8185 52.2099 21.8937 49.2935 20.7024C47.2251 19.8546 45.6181 17.9268 45.3005 15.6981C44.9044 11.4498 45.3268 7.15903 45.0746 2.90391C44.9502 1.55561 42.6852 2.33464 42.8881 0.855127Z" fill="#1D1D1B"/>
<path fill-rule="evenodd" clip-rule="evenodd" d="M220.239 1.01399C223.307 1.33789 226.404 1.10472 229.485 1.17594C232.556 1.11107 235.639 1.33107 238.701 1.01399C238.458 2.75789 238.069 4.47643 237.788 6.21399C237.426 6.21058 237.066 6.21058 236.711 6.21058C236.678 5.07497 236.72 3.62228 235.63 2.93594C234.06 2.24375 232.29 2.63838 230.633 2.52814C230.601 2.69643 230.539 3.03009 230.507 3.19497C230.332 8.78277 230.65 14.3901 230.339 19.975C231.332 20.0657 232.329 20.1594 233.325 20.2662C233.283 20.5511 233.245 20.8389 233.212 21.1237C230.523 21.1881 227.838 21.2594 225.155 21.3242V20.415C226.083 20.1111 227.242 19.6125 227.21 18.4477C227.264 13.1447 227.216 7.83789 227.232 2.53497C225.89 2.57692 224.524 2.4057 223.2 2.67399C221.557 3.0657 220.968 4.8257 220.372 6.19741C220.104 6.20082 219.56 6.21058 219.292 6.21399C219.654 4.48911 219.88 2.73887 220.239 1.01399Z" fill="#1D1D1B"/>
<path fill-rule="evenodd" clip-rule="evenodd" d="M249.227 5.04888C248.185 7.76059 247.15 10.4718 246.124 13.1899C248.137 13.206 250.153 13.2123 252.169 13.1801C251.149 10.485 250.13 7.78644 249.227 5.04888ZM249.289 1.28596C249.79 1.17913 250.295 1.07864 250.81 0.994736C253.059 6.83815 255.311 12.6816 257.583 18.5157C257.884 19.4479 258.579 20.1918 259.547 20.425C259.531 20.6221 259.495 21.0167 259.479 21.2142C257.35 21.2303 255.221 21.2694 253.091 21.3245C253.095 21.0816 253.097 20.5962 253.097 20.3538C253.496 20.2177 253.91 20.1011 254.276 19.8811C254.515 19.506 254.279 19.0689 254.181 18.6938C253.693 17.3382 253.159 15.9986 252.68 14.6425C250.457 14.6621 248.234 14.6069 246.017 14.6621C245.577 14.6133 245.431 15.1186 245.286 15.4225C244.71 16.9338 244.141 18.4479 243.555 19.9523C244.4 20.0884 245.25 20.2079 246.098 20.3308C246.063 20.5542 245.988 21.0006 245.95 21.2206C244.056 21.224 242.16 21.224 240.267 21.2206C240.271 20.946 240.277 20.6738 240.29 20.3991C241.07 20.1338 241.969 19.8133 242.251 18.943C244.603 13.0606 246.962 7.17815 249.289 1.28596Z" fill="#1D1D1B"/>
<path fill-rule="evenodd" clip-rule="evenodd" d="M265.145 1.18882C267.31 1.16297 269.478 1.20492 271.64 1.04346C271.099 2.02053 270.724 3.09126 270.682 4.21419C270.514 9.42687 270.821 14.6557 270.517 19.862C272.481 19.8069 274.462 19.9752 276.419 19.7615C278.312 19.3278 278.95 17.2249 279.717 15.6878C279.992 15.6747 280.539 15.6493 280.814 15.6396C280.448 17.5098 279.982 19.3571 279.587 21.2205C274.856 21.2469 270.122 21.1591 265.391 21.3244C265.395 21.0913 265.401 20.6254 265.404 20.3927C266.34 20.1527 267.469 19.6157 267.394 18.4674C267.436 13.9244 267.388 9.37858 267.414 4.83565C267.394 4.20443 267.456 3.55077 267.262 2.94248C266.841 1.93273 264.961 2.57712 265.145 1.18882Z" fill="#1D1D1B"/>
<path fill-rule="evenodd" clip-rule="evenodd" d="M75.7244 2.49839C75.5805 8.2457 75.8717 14.0091 75.5707 19.7501C77.7373 19.7238 80.0028 19.8842 82.0254 18.9481C84.5559 17.9628 86.179 15.374 86.4048 12.7228C86.7912 9.60083 86.2512 5.97107 83.6783 3.86619C81.5673 2.1057 78.6573 2.11204 76.0586 2.24619C75.9766 2.30863 75.8093 2.43595 75.7244 2.49839ZM69.9927 0.845215C73.2334 0.8618 76.4771 0.796434 79.7208 0.878386C83.0792 1.0579 86.778 2.13839 88.7484 5.07058C90.9711 8.59595 90.5457 13.5018 88.045 16.7779C85.7862 19.6584 82.0449 20.9774 78.4773 21.0852C75.7605 21.1506 73.0373 21.115 70.3171 21.2194C70.32 20.9808 70.3303 20.5091 70.3332 20.2706C70.9162 20.0413 71.5938 19.9135 72.0192 19.4159C72.5266 18.8335 72.4056 18.0184 72.4314 17.3081C72.3953 12.6379 72.4773 7.96082 72.3924 3.29058C72.3822 2.04668 70.9225 1.89595 70.0029 1.67985C69.9995 1.47058 69.9927 1.05497 69.9927 0.845215Z" fill="#1D1D1B"/>
<path fill-rule="evenodd" clip-rule="evenodd" d="M96.545 1.67356C96.545 1.39551 96.5416 1.12039 96.545 0.842343C98.6725 0.838928 100.807 0.875025 102.931 0.697952C102.404 1.79112 101.969 2.94673 101.949 4.17746C101.861 9.40429 102.024 14.6375 101.864 19.8648C102.757 19.9531 103.654 20.0448 104.551 20.1526C104.522 20.4404 104.492 20.7287 104.466 21.0199C101.847 21.0853 99.2257 21.154 96.6069 21.2228C96.6103 20.9116 96.6138 20.6009 96.6201 20.2931C97.5236 19.9789 98.7447 19.4784 98.6495 18.3165C98.6593 13.2823 98.6661 8.2521 98.6461 3.22137C98.7676 2.04673 97.3665 1.916 96.545 1.67356Z" fill="#1D1D1B"/>
<path fill-rule="evenodd" clip-rule="evenodd" d="M153.015 2.53171C152.637 8.29123 153.126 14.0961 152.76 19.862C154.067 19.8585 155.381 19.8878 156.688 19.7551C158.924 19.4605 161.193 18.3571 162.358 16.3512C163.655 14.2512 163.727 11.6854 163.481 9.30049C163.144 6.92245 161.872 4.52147 159.649 3.41806C157.614 2.33757 155.239 2.5444 153.015 2.53171ZM147.324 1.17903C150.446 1.18879 153.569 1.14342 156.688 1.20147C160.086 1.35366 163.862 2.41171 165.833 5.40488C167.982 8.85708 167.577 13.6429 165.156 16.859C163.989 18.4059 162.319 19.5254 160.523 20.221C156.394 21.8259 151.883 20.9849 147.573 21.3244C147.573 21.0137 147.576 20.7063 147.582 20.3956C148.521 20.1337 149.692 19.6288 149.634 18.4576C149.682 13.921 149.631 9.38147 149.657 4.84196C149.627 4.1722 149.728 3.44098 149.388 2.83269C148.87 2.25659 148.035 2.23074 147.343 2.02049C147.336 1.81025 147.33 1.38927 147.324 1.17903Z" fill="#1D1D1B"/>
<path fill-rule="evenodd" clip-rule="evenodd" d="M193.375 1.19526C194.821 1.17916 196.267 1.12404 197.714 1.0499C198.681 2.51868 199.937 3.7577 201.086 5.08112C204.312 8.72453 207.635 12.287 210.777 16.0079C210.79 12.3875 210.771 8.7699 210.787 5.15234C210.797 4.37916 210.713 3.61234 210.602 2.84892C209.93 2.37331 209.13 2.16941 208.328 2.07234V1.17575C210.376 1.20795 212.428 1.09819 214.47 1.24697C213.832 1.95575 212.871 2.41185 212.531 3.3499C212.289 3.92941 212.25 4.56355 212.25 5.1816C212.26 10.5821 212.25 15.9855 212.256 21.386C212.02 21.3889 211.547 21.3957 211.315 21.3987C207.545 17.1957 203.859 12.9182 200.108 8.69868C199.174 7.62794 198.206 6.58258 197.39 5.41429C197.306 10.2972 197.562 15.1928 197.251 20.066C198.141 20.1275 199.028 20.1918 199.918 20.2665C199.876 20.5509 199.837 20.8358 199.801 21.124C197.801 21.1918 195.802 21.2533 193.805 21.3275C193.801 21.0167 193.801 20.7065 193.805 20.3992C194.727 20.1177 196.002 19.6709 195.908 18.4704C195.892 13.6948 195.973 8.91575 195.866 4.14599C195.834 2.85526 194.569 2.34063 193.549 1.95868C193.507 1.76795 193.42 1.38648 193.375 1.19526Z" fill="#1D1D1B"/>
<path fill-rule="evenodd" clip-rule="evenodd" d="M120.31 2.18732C118.612 2.80585 117.266 4.18732 116.51 5.81073C114.985 9.01805 115.24 12.9127 116.844 16.0415C117.773 17.858 119.355 19.439 121.367 19.9659C123.701 20.6732 126.31 19.6059 127.75 17.701C129.741 15.1317 130.199 11.6463 129.587 8.51707C129.076 6.17073 127.809 3.82049 125.642 2.63268C124.039 1.71268 122.045 1.60488 120.31 2.18732ZM121.135 0.613171C123.243 0.403415 125.436 0.436585 127.433 1.23805C130.071 2.19415 132.228 4.40976 133.027 7.10976C134.696 12.1795 132.039 18.2444 127.168 20.4405C123.472 22.1488 118.759 21.8673 115.538 19.2722C111.652 16.1956 110.815 10.2649 113.175 6.01317C114.717 3.02878 117.83 1.0322 121.135 0.613171Z" fill="#1D1D1B"/>
<path fill-rule="evenodd" clip-rule="evenodd" d="M186.679 16.212C185.974 17.5159 185.459 19.3539 183.838 19.7456C181.835 19.9846 179.809 19.8002 177.8 19.8685C178.049 17.1827 177.858 14.4841 177.939 11.792C179.534 11.5773 181.147 11.6963 182.754 11.6807V10.33C181.142 10.3554 179.533 10.3368 177.923 10.3427C177.991 7.8061 177.784 5.23341 178.023 2.71927C179.767 2.36024 181.731 2.47341 183.528 2.71293C185.133 3.00707 185.191 4.90024 185.129 6.1978C185.495 6.20415 185.864 6.20756 186.236 6.2139C186.482 4.4861 186.87 2.78415 187.132 1.06268C182.191 1.30854 177.237 1.11439 172.292 1.17585C172.289 1.45098 172.292 1.72951 172.295 2.00415C172.907 2.17585 173.574 2.23732 174.127 2.5739C174.78 3.00415 174.664 3.86805 174.697 4.53781C174.664 9.23927 174.739 13.9441 174.661 18.6451C174.606 19.7193 173.49 20.1241 172.626 20.3924C172.616 20.6998 172.61 21.0105 172.603 21.3212C177.279 21.169 181.955 21.2402 186.631 21.2241C187.029 19.5705 187.349 17.9007 187.763 16.251C187.398 16.2378 187.038 16.2251 186.679 16.212Z" fill="#1D1D1B"/>
<path fill-rule="evenodd" clip-rule="evenodd" d="M132.416 21.1336C131.323 22.2599 130.058 23.2038 128.646 23.8921C126.657 24.878 124.425 25.3989 122.191 25.3989C118.85 25.3989 115.672 24.2409 113.24 22.137C112.877 21.8262 112.534 21.4911 112.206 21.1399L111.131 22.015C110.956 22.157 110.938 22.4204 111.095 22.5804C111.376 22.8653 111.667 23.1389 111.97 23.3984C114.754 25.8028 118.38 27.1272 122.183 27.1272C124.714 27.1272 127.242 26.537 129.497 25.4204C130.972 24.7009 132.323 23.7375 133.514 22.5755C133.677 22.416 133.661 22.1472 133.484 22.0033L132.416 21.1336Z" fill="#1D1D1B"/>
</g>
</g>
</svg>
